# File created by Blade
# Date/Time:  Thu Jan 22 16:04:59 2015
# Frame Rate: 120.000 fps
#------------------------------------------------------
:FULLY-SPECIFIED
:DEGREES
2386
root 3.667622 36.878765 5.537641 -6.188791 -6.037437 1.961124
RightUpLeg 13.657108 -4.004474 -10.172844
RightLeg -5.695119 -0.000000 0.000000
RightFoot -8.761620 -9.803962 19.909837
RightToeBase 11.642460 -0.000000 -0.000000
LeftUpLeg 12.880747 0.572410 6.686791
LeftLeg -2.570585 -0.000000 0.000000
LeftFoot -6.546460 5.850378 -22.037960
LeftToeBase 6.650216 -0.000000 -0.000000
Spine -3.681174 -1.914136 -2.083497
RightShoulder 29.198933 16.342184 -27.536545
RightArm 90.116931 -23.898624 56.347224
RightForeArm 12.319902 -0.000000 31.279707
RightHand -1.932783 -0.000000 -7.572380
RightHandThumb1 -24.326973 -0.000000 -32.862282
LeftShoulder 10.859816 -4.562709 38.537449
LeftArm 112.508461 9.204410 -50.233322
LeftForeArm 47.296365 -0.000000 12.226227
LeftHand -13.256454 0.000000 -14.828382
LeftHandThumb1 -26.253704 0.000000 33.147579
Head 0.193069 13.477302 0.667394
2387
root 3.669629 36.879077 5.545542 -6.185651 -6.044501 1.956171
RightUpLeg 13.664994 -3.996066 -10.170887
RightLeg -5.694810 -0.000000 0.000000
RightFoot -8.763030 -9.803593 19.909157
RightToeBase 11.641143 -0.000000 -0.000000
LeftUpLeg 12.906768 0.566505 6.685217
LeftLeg -2.601453 -0.000000 0.000000
LeftFoot -6.545189 5.865790 -22.053565
LeftToeBase 6.664146 -0.000000 -0.000000
Spine -3.742940 -1.921514 -2.093674
RightShoulder 29.220721 16.400461 -27.532171
RightArm 90.139168 -23.932489 56.345381
RightForeArm 12.299966 -0.000000 31.103266
RightHand -1.965363 -0.000000 -7.526144
RightHandThumb1 -24.326973 -0.000000 -32.862282
LeftShoulder 10.845847 -4.545660 38.571264
LeftArm 112.572944 9.080720 -50.210498
LeftForeArm 47.332971 -0.000000 12.167411
LeftHand -13.312180 -0.000000 -14.831684
LeftHandThumb1 -26.253704 0.000000 33.147579
Head 0.251255 13.393891 0.783831
2388
root 3.672875 36.879228 5.552535 -6.177400 -6.049161 1.952298
RightUpLeg 13.664735 -3.982628 -10.168945
RightLeg -5.696968 -0.000000 0.000000
RightFoot -8.757188 -9.829243 19.904402
RightToeBase 11.623489 -0.000000 -0.000000
LeftUpLeg 12.921282 0.565375 6.683068
LeftLeg -2.623627 -0.000000 0.000000
LeftFoot -6.543116 5.870193 -22.055375
LeftToeBase 6.634483 -0.000000 -0.000000
Spine -3.810106 -1.924577 -2.100365
RightShoulder 29.237295 16.486919 -27.505985
RightArm 90.150600 -23.987543 56.314245
RightForeArm 12.272021 0.000000 30.890506
RightHand -2.022582 0.000000 -7.435623
RightHandThumb1 -24.326973 -0.000000 -32.862282
LeftShoulder 10.839824 -4.513797 38.584798
LeftArm 112.657751 8.923680 -50.158926
LeftForeArm 47.233126 -0.000000 12.094456
LeftHand -13.446795 -0.000000 -14.779791
LeftHandThumb1 -26.253704 0.000000 33.147579
Head 0.323895 13.296734 0.880511
2389
root 3.676574 36.879517 5.559819 -6.167381 -6.055752 1.958336
RightUpLeg 13.660067 -3.976701 -10.182252
RightLeg -5.691503 -0.000000 0.000000
RightFoot -8.764645 -9.820483 19.924433
RightToeBase 11.630530 -0.000000 -0.000000
LeftUpLeg 12.929953 0.575261 6.670980
LeftLeg -2.635944 -0.000000 0.000000
LeftFoot -6.545317 5.870230 -22.050393
LeftToeBase 6.630673 -0.000000 -0.000000
Spine -3.881326 -1.936266 -2.113209
RightShoulder 29.282887 16.636884 -27.440852
RightArm 90.104173 -24.086109 56.297681
RightForeArm 12.339769 -0.000000 30.658023
RightHand -2.084551 0.000000 -7.495199
RightHandThumb1 -24.326973 -0.000000 -32.862282
LeftShoulder 10.816469 -4.476994 38.586806
LeftArm 112.713858 8.796922 -50.165001
LeftForeArm 47.177681 -0.000000 12.062386
LeftHand -13.534325 -0.000000 -14.721047
LeftHandThumb1 -26.253704 0.000000 33.147579
Head 0.397578 13.218904 0.974347
2390
root 3.679892 36.879622 5.567186 -6.160581 -6.071131 1.956161
RightUpLeg 13.653804 -3.966828 -10.184522
RightLeg -5.679723 -0.000000 0.000000
RightFoot -8.765259 -9.814583 19.917898
RightToeBase 11.614466 -0.000000 -0.000000
LeftUpLeg 12.950907 0.588812 6.668705
LeftLeg -2.660423 -0.000000 0.000000
LeftFoot -6.545806 5.873803 -22.048758
LeftToeBase 6.602163 -0.000000 -0.000000
Spine -3.949877 -1.942397 -2.115247
RightShoulder 29.314421 16.680016 -27.444503
RightArm 90.085127 -24.150442 56.341418
RightForeArm 12.270022 0.000000 30.466003
RightHand -2.111224 0.000000 -7.451896
RightHandThumb1 -24.326973 -0.000000 -32.862282
LeftShoulder 10.780586 -4.440359 38.584083
LeftArm 112.741680 8.695418 -50.204614
LeftForeArm 47.141658 -0.000000 12.085363
LeftHand -13.649045 -0.000000 -14.644683
LeftHandThumb1 -26.253704 0.000000 33.147579
Head 0.482688 13.147252 1.068736
2391
root 3.684126 36.880287 5.575485 -6.148049 -6.082209 1.962176
RightUpLeg 13.652050 -3.968639 -10.206299
RightLeg -5.672422 -0.000000 0.000000
RightFoot -8.759981 -9.761117 19.943714
RightToeBase 11.635541 -0.000000 -0.000000
LeftUpLeg 12.965523 0.599275 6.654612
LeftLeg -2.686503 -0.000000 0.000000
LeftFoot -6.549072 5.881866 -22.054970
LeftToeBase 6.657115 -0.000000 -0.000000
Spine -4.025696 -1.878724 -2.152843
RightShoulder 29.270637 16.810869 -27.399501
RightArm 89.894292 -24.326737 56.488886
RightForeArm 12.169446 0.000000 30.324578
RightHand -2.156146 -0.000000 -7.459673
RightHandThumb1 -24.326973 -0.000000 -32.862282
LeftShoulder 10.785447 -4.428137 38.604628
LeftArm 112.797721 8.635274 -50.314243
LeftForeArm 47.029749 -0.000000 12.072483
LeftHand -13.748965 -0.000000 -14.458743
LeftHandThumb1 -26.253704 0.000000 33.147579
Head 0.567121 13.026991 1.249680
2392
root 3.687400 36.880536 5.584024 -6.142366 -6.095757 1.960889
RightUpLeg 13.654165 -3.943393 -10.203333
RightLeg -5.677176 -0.000000 0.000000
RightFoot -8.770028 -9.797729 19.977202
RightToeBase 11.614056 -0.000000 -0.000000
LeftUpLeg 12.993352 0.607279 6.653184
LeftLeg -2.722657 -0.000000 0.000000
LeftFoot -6.529581 5.869594 -22.075855
LeftToeBase 6.652361 -0.000000 -0.000000
Spine -4.100732 -1.868522 -2.162871
RightShoulder 29.286397 16.890997 -27.402169
RightArm 89.767713 -24.454984 56.615863
RightForeArm 12.133252 0.000000 30.138559
RightHand -2.208484 -0.000000 -7.390482
RightHandThumb1 -24.326973 -0.000000 -32.862282
LeftShoulder 10.756979 -4.377489 38.585118
LeftArm 112.824197 8.573100 -50.433092
LeftForeArm 46.932669 0.000000 12.083069
LeftHand -13.769496 -0.000000 -14.321897
LeftHandThumb1 -26.253704 0.000000 33.147579
Head 0.681896 12.954345 1.385392
2393
root 3.692993 36.880232 5.591581 -6.134469 -6.110150 1.974353
RightUpLeg 13.636642 -3.922185 -10.216739
RightLeg -5.652644 -0.000000 0.000000
RightFoot -8.804151 -9.834657 19.951158
RightToeBase 11.642862 -0.000000 -0.000000
LeftUpLeg 13.006376 0.620532 6.631573
LeftLeg -2.738647 -0.000000 0.000000
LeftFoot -6.528270 5.872614 -22.077830
LeftToeBase 6.636831 -0.000000 -0.000000
Spine -4.171939 -1.848778 -2.187363
RightShoulder 29.242227 16.818255 -27.462101
RightArm 89.929854 -24.476317 56.512769
RightForeArm 12.186831 -0.000000 29.835751
RightHand -2.241111 -0.000000 -7.394696
RightHandThumb1 -24.326973 -0.000000 -32.862282
LeftShoulder 10.721933 -4.384957 38.563114
LeftArm 112.812023 8.564501 -50.575649
LeftForeArm 46.807350 -0.000000 12.102510
LeftHand -13.888441 -0.000000 -14.103600
LeftHandThumb1 -26.253704 0.000000 33.147579
Head 0.784329 12.870369 1.523292
2394
root 3.697107 36.880307 5.600198 -6.140876 -6.119636 1.973760
RightUpLeg 13.648227 -3.920954 -10.224397
RightLeg -5.643241 -0.000000 0.000000
RightFoot -8.801678 -9.832754 19.958109
RightToeBase 11.624824 -0.000000 -0.000000
LeftUpLeg 13.036923 0.627939 6.625581
LeftLeg -2.754058 -0.000000 0.000000
LeftFoot -6.540816 5.871748 -22.084304
LeftToeBase 6.648406 -0.000000 -0.000000
Spine -4.233618 -1.883877 -2.169561
RightShoulder 29.316154 16.760669 -27.505427
RightArm 90.010256 -24.489484 56.442582
RightForeArm 12.209994 0.000000 29.567299
RightHand -2.257583 -0.000000 -7.660556
RightHandThumb1 -24.326973 -0.000000 -32.862282
LeftShoulder 10.641190 -4.346544 38.491880
LeftArm 112.791739 8.544886 -50.669029
LeftForeArm 46.588224 0.000000 12.128054
LeftHand -13.953107 -0.000000 -13.906207
LeftHandThumb1 -26.253704 0.000000 33.147579
Head 0.920178 12.847015 1.604825
2395
root 3.700415 36.880554 5.608152 -6.145492 -6.122719 1.978712
RightUpLeg 13.655413 -3.920190 -10.237169
RightLeg -5.626582 -0.000000 0.000000
RightFoot -8.817193 -9.823113 19.973300
RightToeBase 11.652305 -0.000000 -0.000000
LeftUpLeg 13.061633 0.629375 6.615789
LeftLeg -2.770001 -0.000000 0.000000
LeftFoot -6.531963 5.871600 -22.073258
LeftToeBase 6.622664 -0.000000 -0.000000
Spine -4.287605 -1.876489 -2.192691
RightShoulder 29.298326 16.650767 -27.525620
RightArm 90.145240 -24.494546 56.254722
RightForeArm 12.482622 -0.000000 29.348848
RightHand -2.427156 0.000000 -7.447086
RightHandThumb1 -24.326973 -0.000000 -32.862282
LeftShoulder 10.548185 -4.249201 38.486850
LeftArm 112.889017 8.444211 -50.638994
LeftForeArm 46.259658 -0.000000 12.163090
LeftHand -13.999724 -0.000000 -13.689726
LeftHandThumb1 -26.253704 0.000000 33.147579
Head 1.028648 12.735978 1.751168
2396
root 3.704740 36.879865 5.617122 -6.159832 -6.118200 1.983288
RightUpLeg 13.684377 -3.948293 -10.262787
RightLeg -5.618061 -0.000000 0.000000
RightFoot -8.806677 -9.770814 19.955949
RightToeBase 11.619133 -0.000000 -0.000000
LeftUpLeg 13.094817 0.617252 6.601807
LeftLeg -2.784434 -0.000000 0.000000
LeftFoot -6.546613 5.875447 -22.078503
LeftToeBase 6.686961 -0.000000 -0.000000
Spine -4.330451 -1.860321 -2.216503
RightShoulder 29.277731 16.562525 -27.555558
RightArm 90.166677 -24.513399 56.177118
RightForeArm 12.687149 -0.000000 29.228859
RightHand -2.589352 0.000000 -7.316373
RightHandThumb1 -24.326973 -0.000000 -32.862282
LeftShoulder 10.502503 -4.229711 38.470823
LeftArm 112.918696 8.428887 -50.701162
LeftForeArm 46.107268 -0.000000 12.169808
LeftHand -14.146724 -0.000000 -13.377121
LeftHandThumb1 -26.253704 0.000000 33.147579
Head 1.141774 12.619080 1.910506
2397
root 3.709093 36.879124 5.624997 -6.176971 -6.114335 2.001500
RightUpLeg 13.705915 -3.947262 -10.288045
RightLeg -5.616388 -0.000000 0.000000
RightFoot -8.825226 -9.788921 19.963478
RightToeBase 11.570973 -0.000000 -0.000000
LeftUpLeg 13.126181 0.589685 6.571327
LeftLeg -2.795566 -0.000000 0.000000
LeftFoot -6.548689 5.896741 -22.098109
LeftToeBase 6.606749 -0.000000 -0.000000
Spine -4.371998 -1.840676 -2.252891
RightShoulder 29.280739 16.464458 -27.593755
RightArm 90.177312 -24.521217 56.131595
RightForeArm 12.776850 -0.000000 29.061711
RightHand -2.463367 0.000000 -7.349583
RightHandThumb1 -24.326973 -0.000000 -32.862282
LeftShoulder 10.526950 -4.302340 38.406657
LeftArm 112.838584 8.536157 -50.942349
LeftForeArm 46.327578 -0.000000 12.162436
LeftHand -14.412789 -0.000000 -13.454004
LeftHandThumb1 -26.253704 0.000000 33.147579
Head 1.260586 12.500614 2.047619
2398
root 3.711657 36.878317 5.632800 -6.193503 -6.103193 2.003054
RightUpLeg 13.730940 -3.991294 -10.309856
RightLeg -5.594757 -0.000000 0.000000
RightFoot -8.833813 -9.721724 19.965742
RightToeBase 11.602584 -0.000000 -0.000000
LeftUpLeg 13.155423 0.569400 6.562556
LeftLeg -2.803062 -0.000000 0.000000
LeftFoot -6.556681 5.897712 -22.078267
LeftToeBase 6.648355 -0.000000 -0.000000
Spine -4.407302 -1.843421 -2.276905
RightShoulder 29.282740 16.350668 -27.646532
RightArm 90.162811 -24.527991 56.126673
RightForeArm 12.824203 -0.000000 28.986659
RightHand -2.664450 -0.000000 -7.248891
RightHandThumb1 -24.326973 -0.000000 -32.862282
LeftShoulder 10.496814 -4.287488 38.373783
LeftArm 112.865411 8.534640 -50.990257
LeftForeArm 46.375145 0.000000 12.124141
LeftHand -14.350324 0.000000 -13.237341
LeftHandThumb1 -26.253704 0.000000 33.147579
Head 1.369014 12.377259 2.176448
